<svg xmlns="http://www.w3.org/2000/svg" viewBox="0 0 128 128"><path fill="#659AD2" d="M115.4 30.7L67.1 2.9c-.8-.5-1.9-.7-3.1-.7-1.2 0-2.3.3-3.1.7l-48 27.9c-1.7 1-2.9 3.5-2.9 5.4v55.7c0 1.1.2 2.3 1 3.3.5.7 1.2 1.2 1.9 1.6l48.2 27.9c.8.5 1.9.7 3.1.7 1.2 0 2.3-.3 3.1-.7l48-27.9c1.7-1 2.9-3.5 2.9-5.4V36.1c0-1.1-.2-2.3-1-3.3-.5-.7-1.2-1.2-1.8-1.6zm-50.2 2.8L93.8 52l-28 16.2-28.7-16.6L65.2 33.5zM38.3 73.4l24.9-14.4V103L38.3 88.7V73.4zm28.7-14.4l25.3 14.6v15.1L67 103.2V59z"/><path fill="#03599C" d="M64 0C28.7 0 0 28.7 0 64s28.7 64 64 64 64-28.7 64-64S99.3 0 64 0zm0 18.3c25.2 0 45.7 20.5 45.7 45.7S89.2 109.7 64 109.7 18.3 89.2 18.3 64 38.8 18.3 64 18.3z"/><path fill="#fff" d="M64 32.3c-17.5 0-31.7 14.2-31.7 31.7S46.5 95.7 64 95.7 95.7 81.5 95.7 64 81.5 32.3 64 32.3zm0 10c12 0 21.7 9.7 21.7 21.7S76 85.7 64 85.7 42.3 76 42.3 64 52 42.3 64 42.3z"/><text x="64" y="82" text-anchor="middle" fill="#fff" font-size="60" font-weight="bold" font-family="Arial">C</text></svg>
