<svg xmlns="http://www.w3.org/2000/svg" viewBox="0 0 128 128"><path fill="#00599C" d="M117.5 33.5l.3-.2c-.6-1.1-1.5-2.1-2.4-2.6L67.1 2.9c-.8-.5-1.9-.7-3.1-.7-1.2 0-2.3.3-3.1.7l-48 27.9c-1.7 1-2.9 3.5-2.9 5.4v55.7c0 1.1.2 2.3 1 3.3l.3.2c.3.5.8.9 1.3 1.2l48.2 27.9c.8.5 1.9.7 3.1.7 1.2 0 2.3-.3 3.1-.7l48-27.9c1.7-1 2.9-3.5 2.9-5.4V36.1c.1-.8 0-1.7-.4-2.6z"/><path fill="#004482" d="M64.2 3c-1.2 0-2.3.3-3.1.7l-48 27.9c-1.7 1-2.9 3.5-2.9 5.4v55.7c0 1.1.2 2.3 1 3.3l53-96z"/><path fill="#fff" d="M64 24c-22.1 0-40 17.9-40 40s17.9 40 40 40c16.6 0 30.8-10.1 36.9-24.5l-17.2-10c-3.2 6.9-10.2 11.7-18.2 11.7-11.3 0-20.4-9.1-20.4-20.4 0-11.3 9.1-20.4 20.4-20.4 7.8 0 14.6 4.3 18 10.7l17.3-9.6C95.2 34.5 80.8 24 64 24z"/><path fill="#fff" d="M90 57h-4v-4h-4v4h-4v4h4v4h4v-4h4zm16 0h-4v-4h-4v4h-4v4h4v4h4v-4h4z"/></svg>
