<svg xmlns="http://www.w3.org/2000/svg" viewBox="0 0 756.09 596.44">
  <g fill="#2496ED">
    <path d="M151.82 238.41h69.52v64.27h-69.52z"/>
    <path d="M237.88 238.41h69.52v64.27h-69.52z"/>
    <path d="M237.88 151.43h69.52v64.27h-69.52z"/>
    <path d="M323.94 238.41h69.52v64.27h-69.52z"/>
    <path d="M323.94 151.43h69.52v64.27h-69.52z"/>
    <path d="M410.01 238.41h69.52v64.27h-69.52z"/>
    <path d="M410.01 151.43h69.52v64.27h-69.52z"/>
    <path d="M496.07 238.41h69.52v64.27h-69.52z"/>
    <path d="M323.94 64.45h69.52v64.27h-69.52z"/>
    <path d="M665.68 261.42c-9.84-6.63-32.47-9.04-49.93-5.72-2.16-15.73-10.99-29.41-27.01-41.73l-9.18-6.12-6.12 9.18c-12.24 18.49-14.43 48.73-2.4 68.87-5.36 2.88-15.84 6.82-29.71 6.56H6.09c-6.82 39.64 4.55 91.42 30.68 127.25 25.2 34.55 63.41 52.08 113.54 52.08 108.03 0 187.98-49.72 225.52-140.11 14.71.3 46.47 0 62.67-31.07.41-.72 4.31-8.85 5.55-11.49l-13.06-8.68 34.69-25.02z"/>
  </g>
</svg>