<svg xmlns="http://www.w3.org/2000/svg" viewBox="0 0 287.45 264.55">
  <g fill="#2088FF">
    <path d="M143.73 0C64.35 0 0 64.35 0 143.73c0 63.53 41.2 117.39 98.36 136.41 7.19 1.32 9.82-3.12 9.82-6.93 0-3.42-.13-12.48-.19-24.49-40 8.69-48.44-19.28-48.44-19.28-6.54-16.61-15.97-21.03-15.97-21.03-13.05-8.92 0.99-8.74 0.99-8.74 14.43 1.02 22.02 14.81 22.02 14.81 12.83 21.98 33.65 15.63 41.85 11.95 1.3-9.3 5.01-15.63 9.12-19.22-31.93-3.63-65.49-15.97-65.49-71.06 0-15.69 5.61-28.53 14.81-38.59-1.49-3.63-6.42-18.26 1.4-38.08 0 0 12.07-3.86 39.53 14.74 11.47-3.19 23.77-4.78 36.01-4.84 12.22 0.06 24.53 1.65 36.01 4.84 27.44-18.6 39.49-14.74 39.49-14.74 7.84 19.82 2.92 34.45 1.43 38.08 9.22 10.06 14.78 22.9 14.78 38.59 0 55.22-33.61 67.38-65.63 70.92 5.16 4.44 9.75 13.22 9.75 26.65 0 19.24-.18 34.77-.18 39.49 0 3.85 2.59 8.33 9.88 6.92 57.14-19.05 98.29-72.89 98.29-136.4C287.45 64.35 223.1 0 143.73 0z"/>
    <circle cx="143.73" cy="143.73" r="25" fill="none" stroke="#2088FF" stroke-width="8"/>
    <line x1="143.73" y1="143.73" x2="143.73" y2="80" stroke="#2088FF" stroke-width="6" stroke-linecap="round"/>
    <line x1="143.73" y1="143.73" x2="200" y2="170" stroke="#2088FF" stroke-width="6" stroke-linecap="round"/>
    <line x1="143.73" y1="143.73" x2="87" y2="170" stroke="#2088FF" stroke-width="6" stroke-linecap="round"/>
  </g>
</svg>