<svg xmlns="http://www.w3.org/2000/svg" viewBox="0 0 24 24" fill="#2088FF">
  <path d="M10.984 13.836a.5.5 0 0 1-.353-.146l-1.838-1.838a.5.5 0 1 1 .707-.707l1.484 1.484 3.495-3.495a.5.5 0 1 1 .707.707l-3.849 3.849a.5.5 0 0 1-.353.146z"/>
  <path d="M7.5 3A4.5 4.5 0 0 0 3 7.5v9A4.5 4.5 0 0 0 7.5 21h9a4.5 4.5 0 0 0 4.5-4.5v-9A4.5 4.5 0 0 0 16.5 3h-9zM1.5 7.5A6 6 0 0 1 7.5 1.5h9A6 6 0 0 1 22.5 7.5v9a6 6 0 0 1-6 6h-9a6 6 0 0 1-6-6v-9z"/>
  <circle cx="12" cy="12" r="5.5" fill="none" stroke="#2088FF" stroke-width="1.5"/>
  <path d="M12 1.5v3M12 19.5v3M1.5 12h3M19.5 12h3M4.58 4.58l2.12 2.12M17.3 17.3l2.12 2.12M4.58 19.42l2.12-2.12M17.3 6.7l2.12-2.12" stroke="#2088FF" stroke-width="1.2" stroke-linecap="round"/>
</svg>