<svg xmlns="http://www.w3.org/2000/svg" viewBox="0 0 722 702">
  <path fill="#326CE5" d="M358.986 18.465c-7.3-1.238-14.857.81-20.672 5.604L123.083 196.936c-5.815 4.794-9.088 11.877-8.95 19.359l4.655 252.703c.138 7.482 3.656 14.442 9.623 19.034l206.283 158.735c5.967 4.593 13.573 6.317 20.798 4.713l244.216-54.227c7.225-1.604 13.283-6.365 16.564-13.008l110.767-224.41c3.28-6.644 3.286-14.345.014-20.993L617.152 115.07c-3.272-6.648-9.325-11.416-16.548-13.028z"/>
  <path fill="#fff" d="M362.482 147.478c-6.077.058-11.034 4.636-11.525 10.646l-3.96 48.46c-11.903 1.525-23.49 4.512-34.573 8.908l-31.345-37.167c-4.143-4.912-11.245-5.88-16.507-2.25l-.34.244c-5.263 3.63-7.01 10.567-4.063 16.125l24.227 45.67c-9.32 7.152-17.808 15.414-25.235 24.625L218.68 243.1c-5.648-2.782-12.497-1.04-15.92 4.048l-.21.313c-3.423 5.088-2.484 11.864 2.184 15.747l38.332 31.885c-4.92 10.743-8.485 22.076-10.599 33.737l-48.56 5.505c-6.076.689-10.576 5.954-10.465 12.243l.003.403c.11 6.29 4.79 11.395 10.882 11.869l48.755 3.794c1.716 11.743 4.903 23.155 9.492 34.004l-39.34 29.47c-4.827 3.616-6.081 10.293-2.916 15.523l.196.323c3.165 5.23 9.9 7.281 15.658 4.77l43.81-19.115c7.554 9.065 16.19 17.166 25.752 24.098l-19.903 44.427c-2.59 5.778-.533 12.554 4.783 15.753l.333.2c5.316 3.199 12.183 1.906 15.965-3.005l30.26-39.28c10.534 5.073 21.683 8.835 33.241 11.18l3.203 48.76c.398 6.075 5.26 10.867 11.305 11.148l.402.018c6.045.281 11.271-4.09 12.147-10.168l7.01-48.679c11.612-1.84 22.89-5.112 33.62-9.734l26.4 41.68c3.38 5.334 10.135 7.388 15.706 4.774l.35-.165c5.571-2.614 8.27-9.027 6.276-14.914L443.42 419.24c8.745-7.437 16.517-15.977 23.131-25.441l45.556 19.81c5.686 2.473 12.29.45 15.352-4.703l.197-.332c3.062-5.153 1.608-11.716-3.38-15.267l-40.234-28.661c4.997-10.633 8.613-21.877 10.752-33.468l46.97-5.15c6.048-.663 10.556-5.792 10.488-11.93v-.408c-.068-6.139-4.685-11.175-10.74-11.713l-47.21-4.202c-1.429-12.043-4.379-23.793-8.777-34.983l40.115-31.25c4.93-3.84 5.975-10.727 2.428-16.003l-.228-.34c-3.547-5.276-10.314-7.193-15.728-4.455l-43.372 21.937c-7.2-9.365-15.527-17.744-24.842-24.95l21.23-44.18c2.653-5.524.848-12.14-4.193-15.38l-.32-.206c-5.042-3.24-11.7-2.202-15.487 2.414l-30.274 36.89c-10.847-5.418-22.328-9.443-34.285-11.935l-3.526-48.56c-.441-6.065-5.238-10.848-11.156-11.128zm-1.305 106.285a108.58 108.58 0 0 1 15.36 1.084l6.156 42.397a66.89 66.89 0 0 1 26.248 10.705l34.652-25.317a108.57 108.57 0 0 1 11.072 10.86l-24.52 35.156a66.89 66.89 0 0 1 11.448 25.907l42.567 5.048a108.58 108.58 0 0 1 1.127 15.373 108.58 108.58 0 0 1-1.084 15.36l-42.397 6.156a66.89 66.89 0 0 1-10.705 26.248l25.317 34.652a108.57 108.57 0 0 1-10.86 11.072l-35.156-24.52a66.89 66.89 0 0 1-25.907 11.448l-5.048 42.567a108.58 108.58 0 0 1-15.373 1.127 108.58 108.58 0 0 1-15.36-1.084l-6.156-42.397a66.89 66.89 0 0 1-26.248-10.705l-34.652 25.317a108.57 108.57 0 0 1-11.072-10.86l24.52-35.156a66.89 66.89 0 0 1-11.448-25.907l-42.567-5.048a108.58 108.58 0 0 1-1.127-15.373 108.58 108.58 0 0 1 1.084-15.36l42.397-6.156a66.89 66.89 0 0 1 10.705-26.248l-25.317-34.652a108.57 108.57 0 0 1 10.86-11.072l35.156 24.52a66.89 66.89 0 0 1 25.907-11.448l5.048-42.567a108.58 108.58 0 0 1 15.373-1.127zm.176 73.05c-22.05 0-39.928 17.877-39.928 39.928s17.877 39.928 39.928 39.928 39.928-17.877 39.928-39.928-17.877-39.928-39.928-39.928z"/>
</svg>