<svg xmlns="http://www.w3.org/2000/svg" viewBox="0 0 128 128"><path fill="#336791" d="M93.809 48.703c-.353-2.399-.86-4.611-1.592-6.237-.319-.71-.678-1.353-1.097-1.898a7.07 7.07 0 0 0-.638-.774c-2.166-2.235-5.501-3.327-10.503-3.49-3.6-.117-7.81.425-12.537 1.57.106-.04.212-.083.318-.123 0 0-16.949 7.143-13.606 28.275.868 5.476 2.488 11.355 4.414 16.606 1.926 5.252 4.168 9.893 6.243 12.929 1.037 1.519 2.012 2.571 2.804 3.093.39.258.72.398.987.423a.525.525 0 0 0 .385-.111c.652-.558 1.079-1.73 1.24-3.456.164-1.731.082-4.023-.198-6.801a111.923 111.923 0 0 0-.476-3.81c8.166-2.07 13.556-5.973 17.142-10.452 3.89-4.858 5.67-10.377 6.572-14.824.452-2.224.699-4.2.826-5.754.126-1.548.131-2.684.024-3.162l-.308-.004z"/><path fill="#6699CC" d="M64 5C29.28 5 2 24.696 2 49s27.28 44 62 44 62-19.696 62-44S98.72 5 64 5zm26.418 62.975c-.85 4.187-2.498 9.235-6.03 13.647-3.12 3.896-7.705 7.391-14.48 9.558.18 1.72.305 3.195.362 4.4.08 1.7.034 3.074-.133 4.19-.168 1.115-.456 1.975-.934 2.63-.48.657-1.16 1.098-1.974 1.18-.814.08-1.617-.176-2.42-.636-1.207-.69-2.398-1.92-3.59-3.669-1.927-2.822-3.98-7.14-5.855-12.25-1.33-3.627-2.565-7.72-3.412-11.927-5.54-1.15-10.274-2.913-14.197-5.156C31.3 65.78 26.87 60.27 26.87 53.438c0-8.46 7.052-16.002 17.563-21.085C54.947 27.27 68.91 24.5 83.81 24.5c5.767 0 10.64 1.13 14.126 3.73a12.4 12.4 0 0 1 1.247 1.168c.593.627 1.124 1.359 1.587 2.207.926 1.692 1.583 3.78 2.044 6.21.19 1.003.2 2.5.067 4.16-.132 1.66-.39 3.538-.82 5.607l-.643.393z"/><text x="64" y="72" text-anchor="middle" fill="#fff" font-size="34" font-weight="bold" font-family="Arial">PG</text></svg>
