<svg xmlns="http://www.w3.org/2000/svg" viewBox="0 0 128 128"><linearGradient id="a" x1="70.252" x2="170.659" y1="1237.399" y2="1151.272" gradientTransform="matrix(.563 0 0 -.568 -29.215 707.817)" gradientUnits="userSpaceOnUse"><stop offset="0" stop-color="#5A9FD4"/><stop offset="1" stop-color="#306998"/></linearGradient><path fill="url(#a)" d="M63.391 1.988c-4.222.2-8.252.722-11.945 1.502-10.89 2.3-12.865 7.118-12.865 15.995v11.723h25.733v3.908H24.401c-7.479 0-14.029 4.495-16.082 13.035-2.369 9.78-2.474 15.884 0 26.094 1.835 7.598 6.214 13.035 13.694 13.035h8.864V75.557c0-8.496 7.35-15.995 15.996-15.995h25.709c7.16 0 12.869-5.89 12.869-13.056V15.49c0-6.955-5.879-12.18-12.869-13.012-4.423-.527-9.009-.688-13.195-.49zM50.028 9.49a4.873 4.873 0 0 1 4.879 4.904 4.888 4.888 0 0 1-4.879 4.93 4.898 4.898 0 0 1-4.904-4.93 4.882 4.882 0 0 1 4.904-4.904z"/><linearGradient id="b" x1="209.474" x2="173.62" y1="1098.811" y2="1149.539" gradientTransform="matrix(.563 0 0 -.568 -29.215 707.817)" gradientUnits="userSpaceOnUse"><stop offset="0" stop-color="#FFD43B"/><stop offset="1" stop-color="#FFE873"/></linearGradient><path fill="url(#b)" d="M91.682 28.108v11.304c0 8.858-7.56 16.357-15.996 16.357H49.977c-7.045 0-12.869 6.028-12.869 13.074v24.464c0 6.956 6.045 11.042 12.869 13.056 8.174 2.413 16.016 2.849 25.709 0 6.44-1.89 12.869-5.692 12.869-13.056v-9.793H62.848v-3.908h38.578c7.48 0 10.261-5.216 12.869-13.035 2.687-8.04 2.573-15.774 0-26.094-1.849-7.432-5.381-13.035-12.869-13.035H91.682v.666zm-14.667 73.67a4.888 4.888 0 0 1 4.879 4.93 4.873 4.873 0 0 1-4.879 4.904 4.882 4.882 0 0 1-4.904-4.904 4.898 4.898 0 0 1 4.904-4.93z"/></svg>
